<svg id="Layer_1" data-name="Layer 1" xmlns="http://www.w3.org/2000/svg" viewBox="0 0 50 38.64"><defs><style>.cls-1{fill:#010101;}</style></defs><title>icon-mask</title><path class="cls-1" d="M2.27,4.73H47.73a2.27,2.27,0,0,0,0-4.55H2.27A2.27,2.27,0,1,0,2.27,4.73Zm45.45,6.82H2.27a2.27,2.27,0,1,0,0,4.55H47.73A2.27,2.27,0,0,0,47.73,11.55Zm0,11.36H2.27a2.27,2.27,0,1,0,0,4.55H47.73A2.27,2.27,0,0,0,47.73,22.91Zm0,11.36H2.27a2.27,2.27,0,0,0,0,4.55H47.73A2.27,2.27,0,0,0,47.73,34.27Z" transform="translate(0 -0.18)"/></svg>